<?xml version="1.0" encoding="utf-8"?>
<!-- Generator: Adobe Illustrator 25.0.1, SVG Export Plug-In . SVG Version: 6.00 Build 0)  -->
<svg version="1.1" id="Logo" xmlns="http://www.w3.org/2000/svg" xmlns:xlink="http://www.w3.org/1999/xlink" x="0px" y="0px"
	 viewBox="0 0 503.8 503.8" style="enable-background:new 0 0 503.8 503.8;" xml:space="preserve">
<style type="text/css">
	.st0{fill:#FEEB34;}
</style>
<g>
	<path class="st0" d="M375.4,158.5c-2.5-6.9-6.6-13.1-11.9-18.2c-5.1-5.3-11.3-9.3-18.2-11.9c-5.6-2.2-14-4.7-29.4-5.5
		c-16.7-0.8-21.7-0.9-64-0.9l0,0c-42.3,0-47.3,0.2-64,0.9c-15.4,0.7-23.8,3.3-29.4,5.5c-6.9,2.5-13.1,6.6-18.2,11.9
		c-5.3,5.1-9.3,11.3-11.9,18.2c-2.2,5.6-4.7,14-5.5,29.4c-0.8,16.7-0.9,21.7-0.9,64s0.2,47.3,0.9,64c0.7,15.4,3.3,23.8,5.5,29.4
		c2.5,6.9,6.6,13.1,11.9,18.2c5.1,5.3,11.3,9.3,18.2,11.9c5.6,2.2,14,4.7,29.4,5.5c16.7,0.8,21.7,0.9,64,0.9s47.3-0.2,64-0.9
		c15.4-0.7,23.8-3.3,29.4-5.5c13.8-5.3,24.7-16.2,30.1-30.1c2.2-5.6,4.7-14,5.5-29.4c0.8-16.7,0.9-21.7,0.9-64s-0.2-47.3-0.9-64
		C380.2,172.5,377.6,164.1,375.4,158.5z M251.9,333.3c-44.9,0-81.3-36.4-81.3-81.3s36.4-81.3,81.3-81.3c0,0,0,0,0,0
		c44.9,0,81.3,36.4,81.3,81.3C333.3,296.9,296.8,333.3,251.9,333.3z M336.5,186.4c-10.5,0-19-8.5-19-19c0-10.5,8.5-19,19-19
		c10.5,0,19,8.5,19,19C355.5,177.9,347,186.4,336.5,186.4z"/>
	
		<ellipse transform="matrix(0.7071 -0.7071 0.7071 0.7071 -104.3576 251.9237)" class="st0" cx="251.9" cy="251.9" rx="52.8" ry="52.8"/>
	<path class="st0" d="M251.9,0C112.8,0,0,112.8,0,251.9s112.8,251.9,251.9,251.9s251.9-112.8,251.9-251.9S391.1,0,251.9,0z
		 M409.4,317.2c-0.8,16.9-3.4,28.4-7.4,38.4c-8.2,21.3-25,38.1-46.3,46.3c-10.1,3.9-21.5,6.6-38.4,7.4c-16.9,0.8-22.3,1-65.3,1
		c-43,0-48.4-0.2-65.3-1c-16.9-0.8-28.4-3.4-38.4-7.4c-10.6-4-20.2-10.2-28.1-18.3c-8.1-7.9-14.3-17.5-18.3-28.1
		c-3.9-10.1-6.6-21.5-7.4-38.4c-0.8-16.9-1-22.3-1-65.3s0.2-48.4,1-65.3c0.8-16.9,3.4-28.4,7.4-38.4c4-10.6,10.2-20.1,18.3-28.1
		c7.9-8.1,17.5-14.3,28.1-18.3c10.1-3.9,21.6-6.6,38.5-7.4c16.9-0.8,22.3-1,65.3-1l0,0c43,0,48.4,0.2,65.3,1
		c16.9,0.8,28.4,3.4,38.4,7.4c10.6,4,20.2,10.2,28.1,18.3c8.1,7.9,14.3,17.5,18.3,28.1c3.9,10.1,6.6,21.5,7.4,38.4
		c0.8,16.9,1,22.3,1,65.3S410.1,300.4,409.4,317.2z"/>
</g>
</svg>
